<svg xmlns="http://www.w3.org/2000/svg" data-name="Layer 1" viewBox="0 0 128 128"><path d="M120 84.001V84.001h4a4 4 0 0 0 4-3.99994V76.0011a3.9999 3.9999 0 0 0-4-3.99988h-7V68.00128a3.99994 3.99994 0 0 0-4-3.99988H90.918L90.91785 64H37.08215l-.00018.0014H15a3.99994 3.99994 0 0 0-4 3.99988v3.99994H4A3.99994 3.99994 0 0 0 0 76.0011V80.001A4 4 0 0 0 4 84.001H8v23.99945a3.99994 3.99994 0 0 0-4 3.99988v3.99994a4 4 0 0 0-4 3.99994v3.99988A4 4 0 0 0 4 128H124a4 4 0 0 0 4-3.99994v-3.99988a3.99991 3.99991 0 0 0-4-3.99994v-3.99994a3.9999 3.9999 0 0 0-4-3.99988V84.001zm-4 0v23.99939h-4V84.001zM15 68.00128h98v3.99994H15zM108 84.001v23.99945h-8V84.001zM96 84.001v23.99939H92V84.001zM88 84.001v23.99945H80V84.001zM76 84.001v23.99939H72V84.001zM68 84.001v23.99945H60V84.001zM56 84.001v23.99939H52V84.001zM48 84.001v23.99945H40V84.001zM36 84.001v23.99939H32V84.001zM28 84.001v23.99945H20V84.001zM12 84.001h4v23.99939H12zm108 31.99921H8v-3.99994H120zM73.85559 40.86945A10.25387 10.25387 0 0 0 66 31.291V21.84167c2.53125.4043 6.70117.20313 13.24219-2.21722 7.44727-2.75775 11.30762-1.30566 12.62012-.5542a3.02405 3.02405 0 0 0 2.81934.103 2.98159 2.98159 0 0 0 1.64844-2.248 11.48635 11.48635 0 0 0-.90625-6.67175 4.79176 4.79176 0 0 1-.39453-3.94867 4.00018 4.00018 0 0 0-2.00977-5.13074c-2.708-1.23871-7.53809-2.12347-15.166.69971C70.8974 4.44934 67.40448 4.1217 66 3.74481V2.00275a2 2 0 0 0-4 0V31.14362a10.25524 10.25524 0 0 0-8.62177 10.04462A27.09985 27.09985 0 0 0 37.6889 60H90.31415A27.10121 27.10121 0 0 0 73.85559 40.86945zM64 39.002a26.96135 26.96135 0 0 0-6.44238.777 6.24161 6.24161 0 0 1 12.08954-.1756A26.97911 26.97911 0 0 0 64 39.002z"/></svg>